<?xml version="1.0" standalone="no"?>
<!DOCTYPE svg PUBLIC "-//W3C//DTD SVG 20010904//EN"
 "http://www.w3.org/TR/2001/REC-SVG-20010904/DTD/svg10.dtd">
<svg version="1.0" xmlns="http://www.w3.org/2000/svg"
 width="600.000000pt" height="600.000000pt" viewBox="0 0 600.000000 600.000000"
 preserveAspectRatio="xMidYMid meet">

<g transform="translate(0.000000,600.000000) scale(0.100000,-0.100000)"
fill="#ffffff" stroke="none">
<path d="M2892 5118 c-28 -18 -77 -51 -107 -72 -79 -56 -135 -59 -274 -15 -94
29 -106 31 -152 21 -71 -17 -94 -35 -169 -137 -88 -119 -105 -128 -270 -135
-109 -5 -131 -9 -168 -30 -53 -30 -82 -77 -118 -190 -36 -116 -77 -156 -194
-195 -105 -34 -136 -50 -167 -83 -40 -43 -47 -69 -53 -202 -7 -164 -16 -182
-135 -270 -102 -75 -120 -98 -137 -169 -10 -45 -8 -58 20 -149 33 -103 40
-171 22 -217 -6 -15 -38 -65 -72 -112 -60 -82 -63 -89 -66 -152 -4 -72 3 -87
102 -226 56 -78 59 -136 16 -271 -52 -161 -34 -211 110 -320 123 -92 140 -124
140 -274 0 -81 5 -114 19 -145 35 -75 64 -95 201 -140 119 -39 156 -78 198
-204 60 -179 93 -203 288 -211 120 -5 134 -7 170 -31 22 -15 67 -64 100 -110
98 -138 168 -160 332 -105 119 40 182 35 260 -22 103 -75 142 -95 196 -100 63
-5 101 10 192 76 38 27 79 55 92 61 40 21 113 16 202 -14 166 -56 235 -35 334
103 32 46 77 96 99 110 37 25 51 27 171 32 191 8 230 36 286 207 45 134 79
168 213 213 171 56 199 95 207 286 5 120 7 134 32 171 14 22 64 67 110 99 138
99 158 160 108 318 -44 137 -40 194 18 274 86 118 97 141 97 212 0 71 -11 94
-97 212 -58 80 -62 137 -18 274 51 159 31 217 -110 320 -124 91 -133 107 -140
269 -9 191 -36 229 -207 285 -134 45 -168 79 -213 213 -56 169 -95 199 -280
207 -165 7 -182 16 -272 137 -107 145 -162 164 -322 113 -137 -44 -194 -40
-274 18 -110 81 -142 96 -207 100 -54 3 -65 0 -113 -30z m191 -21 c20 -12 69
-44 108 -72 65 -45 76 -50 137 -53 53 -3 87 3 166 27 54 17 106 31 115 31 42
0 117 -51 156 -107 106 -151 132 -165 311 -173 124 -5 133 -6 167 -33 44 -33
59 -60 92 -164 44 -138 89 -181 237 -224 86 -24 143 -64 164 -115 9 -22 14
-72 14 -142 0 -98 3 -113 28 -163 22 -43 44 -67 116 -121 142 -106 154 -141
105 -295 -33 -102 -39 -175 -20 -226 6 -16 39 -67 73 -114 56 -77 62 -91 65
-142 4 -62 0 -72 -92 -202 -45 -65 -50 -76 -53 -138 -3 -55 2 -85 28 -169 30
-93 32 -106 21 -144 -16 -56 -31 -73 -123 -141 -74 -55 -116 -99 -133 -142 -5
-11 -11 -79 -14 -151 -6 -123 -8 -133 -34 -167 -33 -44 -60 -59 -164 -92 -138
-44 -176 -84 -228 -242 -47 -144 -88 -172 -251 -173 -155 0 -197 -21 -288
-144 -99 -134 -143 -152 -275 -110 -177 56 -220 52 -337 -32 -100 -72 -125
-84 -174 -84 -49 0 -77 14 -176 85 -112 80 -170 88 -304 40 -81 -29 -124 -35
-166 -24 -53 15 -72 32 -145 130 -90 118 -132 139 -282 139 -166 0 -215 34
-257 178 -43 149 -85 193 -223 237 -104 33 -131 48 -164 92 -27 34 -28 43 -33
167 -8 179 -22 204 -170 309 -112 79 -128 132 -81 277 32 97 39 177 21 225 -6
15 -38 66 -73 113 -61 85 -62 86 -62 152 0 64 2 69 52 138 106 145 116 201 63
358 -50 146 -35 188 107 293 71 53 93 77 116 120 24 50 27 65 27 162 0 121 8
150 53 197 24 25 54 40 127 62 153 47 191 85 236 232 30 96 68 153 120 174 22
9 72 14 142 14 98 0 113 3 163 28 43 21 67 44 117 111 109 146 144 159 297
111 103 -33 178 -40 230 -20 16 6 59 33 95 60 37 27 80 56 96 65 43 22 112 19
157 -8z"/>
<path d="M2840 4639 c-262 -25 -532 -123 -765 -276 -133 -88 -346 -300 -434
-433 -345 -518 -382 -1143 -99 -1691 230 -447 668 -768 1175 -860 165 -30 401
-30 568 0 598 109 1085 529 1275 1100 112 333 113 697 4 1034 -102 315 -315
608 -594 817 -104 78 -327 193 -451 234 -219 71 -454 97 -679 75z m435 -89
c663 -112 1190 -660 1286 -1338 15 -111 6 -422 -16 -522 -67 -305 -205 -565
-414 -784 -238 -247 -548 -407 -895 -463 -76 -12 -144 -14 -285 -10 -271 7
-417 44 -656 162 -441 218 -760 645 -846 1134 -28 159 -29 383 0 541 100 570
512 1047 1055 1225 255 83 498 100 771 55z"/>
<path d="M2880 4472 c0 -5 21 -41 46 -80 41 -65 45 -76 39 -112 l-7 -40 41 0
40 0 6 48 c5 31 22 70 51 115 l44 67 -43 0 c-40 0 -45 -3 -67 -41 l-23 -42
-26 47 c-24 42 -29 46 -63 46 -21 0 -38 -4 -38 -8z"/>
<path d="M2645 4433 c-33 -9 -61 -17 -63 -18 -1 -1 9 -53 24 -114 24 -105 28
-112 48 -107 12 3 46 10 76 17 65 13 74 20 66 47 -6 18 -11 19 -42 10 -41 -11
-64 -5 -64 16 0 9 16 20 41 26 33 9 40 15 37 33 -3 23 -12 25 -65 13 -29 -7
-33 -5 -33 12 0 16 9 22 40 27 44 7 53 15 44 39 -7 19 -30 19 -109 -1z"/>
<path d="M3453 4363 c-8 -21 -28 -69 -44 -107 -16 -38 -28 -70 -27 -71 31 -19
139 -55 167 -55 52 0 79 30 64 69 -9 26 -8 30 12 39 29 13 37 45 17 73 -12 18
-146 89 -167 89 -3 0 -13 -17 -22 -37z m101 -49 c17 -6 22 -29 9 -37 -16 -10
-53 12 -47 28 7 16 14 18 38 9z m-20 -96 c16 -26 -4 -41 -38 -28 -23 8 -25 13
-16 31 13 23 38 22 54 -3z"/>
<path d="M2379 4342 l-22 -19 38 -68 38 -68 -85 45 -85 45 -47 -24 -47 -24 29
-52 c16 -29 42 -75 58 -104 28 -51 28 -51 56 -37 15 8 28 17 28 21 0 3 -16 35
-35 70 -19 35 -35 65 -35 68 0 2 37 -17 82 -42 l81 -45 49 23 c27 12 47 25 46
28 -24 52 -111 201 -118 201 -4 0 -18 -8 -31 -18z"/>
<path d="M3753 4132 c-56 -31 -102 -60 -103 -63 0 -3 14 -16 32 -29 26 -19 34
-21 50 -11 21 13 26 10 75 -32 17 -15 20 -24 12 -38 -7 -15 -3 -23 22 -41 17
-13 33 -22 37 -21 3 1 21 53 39 115 l33 113 -37 33 c-20 17 -41 32 -47 32 -6
0 -57 -26 -113 -58z m116 -43 c-17 -49 -26 -55 -48 -34 -20 17 -20 18 17 45
20 15 38 26 40 25 1 -1 -3 -17 -9 -36z"/>
<path d="M2861 4139 c-434 -54 -811 -360 -946 -768 -45 -136 -58 -218 -58
-366 -1 -149 14 -246 58 -374 132 -389 467 -678 874 -758 114 -22 309 -22 424
1 462 89 824 451 913 913 23 115 23 310 1 424 -90 463 -441 817 -904 914 -94
19 -268 26 -362 14z m324 -90 c429 -74 778 -418 859 -849 22 -114 21 -302 -3
-415 -86 -416 -410 -740 -826 -826 -121 -25 -309 -25 -430 0 -675 140 -1041
876 -745 1498 103 218 268 386 485 493 212 105 430 138 660 99z"/>
<path d="M2975 3959 c-21 -45 -40 -59 -82 -59 -52 0 -56 -13 -17 -51 35 -33
36 -35 29 -91 -3 -32 -4 -58 -1 -58 3 0 26 10 51 22 l45 22 45 -22 c25 -12 48
-22 50 -22 3 0 2 25 -1 56 -7 54 -6 56 30 93 40 41 36 51 -20 51 -39 0 -59 15
-79 59 -10 23 -21 41 -25 41 -4 0 -15 -18 -25 -41z"/>
<path d="M2614 3886 c-14 -28 -24 -36 -56 -41 -45 -8 -47 -14 -12 -40 24 -18
25 -24 20 -67 l-7 -48 36 22 c35 20 38 20 71 4 47 -22 47 -21 39 20 -6 32 -3
41 25 70 l32 32 -45 7 c-38 6 -47 12 -58 36 -17 43 -27 44 -45 5z"/>
<path d="M3344 3888 c-15 -32 -23 -38 -61 -44 l-45 -6 32 -33 c28 -28 31 -37
25 -69 -8 -41 -8 -42 39 -20 33 16 36 16 70 -4 l35 -21 -6 45 c-5 40 -3 48 21
73 l28 29 -41 7 c-35 6 -45 13 -60 43 l-19 37 -18 -37z"/>
<path d="M2571 3323 c-76 -38 -106 -131 -105 -333 0 -214 41 -308 142 -325 89
-15 158 28 189 118 26 75 26 359 0 433 -37 105 -135 152 -226 107z m116 -143
c6 -25 11 -106 11 -180 0 -74 -5 -155 -11 -180 -11 -41 -15 -45 -42 -45 -21 0
-33 7 -41 24 -29 58 -25 379 6 416 8 9 25 15 39 13 22 -2 28 -11 38 -48z"/>
<path d="M3000 3323 c-39 -20 -74 -68 -91 -122 -6 -20 -13 -94 -16 -166 -10
-261 42 -370 176 -370 109 1 155 63 174 236 21 188 -15 362 -85 412 -38 28
-114 33 -158 10z m109 -128 c11 -23 15 -71 15 -195 0 -187 -9 -223 -57 -228
-44 -5 -51 28 -51 228 0 200 7 233 51 228 19 -2 32 -12 42 -33z"/>
<path d="M3391 3327 c-72 -37 -103 -179 -66 -305 20 -67 52 -92 117 -92 93 0
134 74 126 230 -5 98 -24 141 -74 165 -39 18 -71 19 -103 2z m80 -119 c15 -57
6 -165 -16 -187 -15 -15 -17 -15 -31 3 -18 25 -20 196 -2 214 22 22 37 12 49
-30z"/>
<path d="M2136 3249 l-86 -81 32 -41 32 -40 46 51 c25 29 47 52 50 52 3 0 4
-117 2 -260 l-3 -260 61 0 60 0 0 330 0 330 -54 0 c-55 0 -55 0 -140 -81z"/>
<path d="M3713 3313 c-4 -10 -64 -157 -134 -328 l-128 -310 41 -3 c22 -2 44 0
48 5 8 8 270 637 270 647 0 4 -20 6 -45 6 -34 0 -47 -4 -52 -17z"/>
<path d="M3746 3049 c-38 -30 -60 -114 -53 -209 8 -120 46 -175 121 -175 91 0
136 67 136 205 0 94 -21 155 -61 184 -34 23 -110 21 -143 -5z m94 -74 c31 -38
19 -225 -15 -225 -25 0 -35 36 -35 120 0 104 18 143 50 105z"/>
<path d="M2614 2266 c-14 -28 -24 -36 -56 -41 -21 -4 -38 -9 -38 -12 0 -3 12
-14 26 -26 23 -18 26 -25 20 -64 -3 -23 -4 -43 -1 -43 2 0 20 7 38 16 31 15
36 15 65 0 43 -22 45 -21 37 20 -6 32 -3 41 25 70 l32 32 -45 7 c-38 6 -47 12
-58 36 -17 43 -27 44 -45 5z"/>
<path d="M2970 2251 c-22 -48 -24 -49 -76 -56 -30 -3 -54 -10 -54 -14 0 -4 16
-23 36 -42 35 -33 36 -35 29 -92 l-6 -58 50 26 51 25 51 -25 50 -26 -6 58 c-7
57 -6 59 29 92 20 19 36 38 36 42 0 4 -24 11 -54 14 -52 7 -54 8 -76 56 -13
27 -26 49 -30 49 -4 0 -17 -22 -30 -49z"/>
<path d="M3343 2266 c-13 -29 -22 -35 -61 -41 l-44 -7 32 -32 c28 -29 31 -38
25 -70 -8 -41 -8 -42 39 -19 32 15 37 15 60 0 38 -25 45 -21 39 24 -5 34 -2
44 22 68 l27 29 -41 7 c-34 6 -44 13 -57 41 -9 19 -18 34 -20 34 -3 0 -12 -15
-21 -34z"/>
<path d="M1968 4055 c-49 -33 -78 -83 -78 -135 0 -36 6 -48 36 -76 29 -28 43
-34 78 -34 71 0 156 80 156 147 0 104 -105 157 -192 98z m97 -70 c29 -28 32
-61 8 -87 -21 -24 -54 -23 -87 3 -30 24 -34 63 -9 91 23 25 59 23 88 -7z"/>
<path d="M4044 3920 c-37 -15 -74 -68 -74 -106 0 -42 12 -68 53 -111 34 -36
49 -40 66 -20 8 11 5 19 -15 38 -52 48 -51 91 1 125 37 24 71 11 95 -37 18
-34 24 -39 43 -33 31 9 30 8 12 46 -44 86 -115 125 -181 98z"/>
<path d="M1720 3743 c-11 -25 -20 -48 -20 -51 0 -4 26 -33 58 -65 l57 -59 -88
6 -87 7 -20 -47 c-11 -26 -19 -48 -17 -50 4 -4 197 -94 202 -94 3 0 11 13 20
29 l15 29 -73 36 c-50 25 -63 34 -42 32 17 -3 55 -7 85 -11 56 -6 56 -6 72 27
l16 33 -61 63 -62 64 72 -36 72 -36 17 31 c8 17 12 35 7 39 -4 4 -52 28 -105
53 l-98 46 -20 -46z"/>
<path d="M4213 3612 c-50 -21 -94 -40 -97 -43 -8 -8 14 -69 24 -69 5 0 21 5
36 10 50 19 58 5 25 -44 -36 -52 -35 -44 -15 -91 l15 -38 45 66 44 66 57 -20
c31 -10 60 -18 64 -17 4 2 0 18 -9 37 -14 28 -28 38 -71 53 -30 10 -56 20 -59
23 -2 2 14 12 37 21 22 9 41 20 41 25 0 18 -24 59 -34 58 -6 0 -52 -17 -103
-37z"/>
<path d="M1624 3072 c-52 -8 -76 -82 -39 -122 40 -45 125 -12 125 48 0 51 -36
82 -86 74z"/>
<path d="M4345 3072 c-53 -11 -76 -90 -37 -125 25 -23 85 -22 106 2 48 53 1
137 -69 123z"/>
<path d="M4100 2428 c-12 -24 -31 -57 -42 -75 l-19 -31 102 -57 c55 -32 104
-53 109 -49 4 5 24 39 44 76 l37 67 -22 11 c-23 13 -25 11 -55 -43 -12 -23
-18 -26 -35 -16 l-20 10 21 37 c21 34 21 37 4 49 -25 18 -28 17 -47 -22 -9
-19 -21 -35 -27 -35 -21 0 -21 28 0 63 21 35 21 36 1 46 -27 15 -24 16 -51
-31z"/>
<path d="M1760 2442 c-49 -24 -75 -78 -61 -129 11 -38 75 -143 89 -143 4 0 30
14 59 30 l51 29 -30 56 c-26 48 -32 54 -49 45 -22 -12 -22 -15 -9 -40 7 -13 6
-21 -4 -29 -11 -9 -18 -7 -30 11 -22 31 -20 64 6 88 32 30 71 26 102 -11 14
-17 26 -39 26 -50 0 -15 7 -19 31 -19 27 0 30 3 23 23 -20 65 -60 119 -106
143 -35 18 -56 18 -98 -4z"/>
<path d="M3924 2175 l-58 -67 80 -73 c43 -41 84 -74 91 -75 11 0 113 108 113
121 0 4 -7 12 -15 19 -13 11 -21 8 -50 -20 -29 -28 -36 -31 -50 -20 -14 12
-12 17 16 46 18 19 31 35 28 37 -2 1 -12 8 -21 16 -15 11 -21 8 -45 -18 -21
-23 -32 -29 -43 -22 -12 8 -9 16 17 49 31 38 31 40 14 56 -18 16 -22 13 -77
-49z"/>
<path d="M2009 2163 c-106 -118 -112 -139 -49 -207 45 -49 88 -71 122 -63 13
4 50 33 83 67 l59 60 -27 27 -27 27 -58 -57 c-62 -61 -79 -68 -105 -39 -26 29
-21 42 40 104 l57 58 -30 30 -30 31 -35 -38z"/>
<path d="M3715 1989 c-96 -69 -98 -71 -82 -94 14 -18 15 -18 44 3 l29 21 50
-74 c27 -41 52 -75 56 -75 4 0 19 11 34 24 l28 23 -53 73 c-55 75 -55 74 -8
101 14 8 15 14 7 29 -15 28 -26 25 -105 -31z"/>
<path d="M2275 1855 c-49 -42 -91 -79 -93 -83 -1 -5 14 -16 34 -26 33 -15 39
-15 52 -2 13 13 20 12 59 -7 36 -18 43 -25 39 -43 -5 -17 2 -27 30 -43 20 -12
38 -21 39 -19 3 3 25 215 25 239 0 11 -77 60 -93 59 -1 0 -42 -34 -92 -75z
m114 -32 c-5 -21 -9 -41 -9 -45 0 -12 -13 -9 -34 7 -19 15 -19 16 9 45 38 39
45 38 34 -7z"/>
<path d="M3498 1863 c-10 -2 -18 -8 -18 -12 0 -8 30 -96 46 -136 5 -12 -21 3
-71 42 l-78 61 -46 -16 c-25 -8 -47 -16 -49 -17 -3 -3 64 -201 73 -216 5 -6
38 2 63 17 1 1 -9 32 -22 70 -14 37 -23 70 -21 72 2 2 35 -21 74 -51 l71 -55
50 16 c28 9 49 19 48 22 -2 4 -19 53 -38 108 -35 103 -38 107 -82 95z"/>
<path d="M2615 1789 c-33 -146 -45 -202 -43 -204 2 -1 19 -5 40 -9 36 -7 36
-6 43 34 9 53 28 51 49 -5 10 -25 22 -48 28 -51 14 -9 78 -23 78 -18 0 3 -11
27 -25 55 l-26 50 31 25 c69 58 17 113 -132 139 -33 6 -38 5 -43 -16z m110
-53 c16 -12 17 -16 6 -30 -26 -31 -62 -9 -47 29 7 19 17 19 41 1z"/>
<path d="M2961 1644 c-23 -63 -41 -117 -41 -120 0 -2 18 -4 40 -4 34 0 42 4
50 25 8 22 15 25 59 25 40 0 50 -3 54 -20 4 -16 14 -20 46 -20 23 0 41 4 41 9
0 4 -22 56 -50 115 l-50 106 -54 0 -54 0 -41 -116z m114 30 c21 -50 19 -54
-16 -54 -26 0 -30 3 -24 18 3 9 9 29 12 45 3 15 7 27 9 27 2 0 11 -16 19 -36z"/>
</g>
</svg>
